<?xml version="1.0" encoding="utf-8"?>
<!-- Generator: Adobe Illustrator 25.2.0, SVG Export Plug-In . SVG Version: 6.00 Build 0)  -->
<svg version="1.1" id="Calque_1" xmlns="http://www.w3.org/2000/svg" xmlns:xlink="http://www.w3.org/1999/xlink" x="0px" y="0px"
	 viewBox="0 0 100 100" style="enable-background:new 0 0 100 100;" xml:space="preserve">
<style type="text/css">
	.st0{opacity:0.3;}
	.st1{fill:#7A29D7;}
</style>
<g class="st0">
	<path class="st1" d="M54.6,35.92c-1.31-0.37-1.96-1.81-1.46-3.11c0.47-1.22,0.63-2.4,0.5-3.59c-0.21-1.92-0.97-3.59-2.26-5.01
		c-1.11-1.21-2.39-2.04-3.88-2.47c-1.48-0.44-3.08-0.41-4.79,0.08c-1.73,0.5-3.43,1.53-5.14,3.09l-5.92,5.41
		c-0.97,0.89-1.06,2.38-0.18,3.34L47.8,51.54c0.06,0.11,0.13,0.2,0.21,0.29l4.75,5.3c0.88,0.98,0.78,2.53-0.24,3.44l-2.21,2
		c-1.86,1.66-3.1,3.34-3.72,5.01c-0.63,1.68-0.77,3.26-0.41,4.73c0.34,1.48,1.02,2.76,2.01,3.87c1.1,1.22,2.37,2.06,3.86,2.51
		c1.48,0.46,3.07,0.43,4.79-0.06c1.71-0.5,3.42-1.52,5.14-3.07l5.9-5.3c1.02-0.91,1.12-2.45,0.23-3.45L52.08,48.97l-0.01-0.01
		c-0.07-0.13-0.17-0.26-0.27-0.38l-4.79-5.24c-0.86-0.95-0.78-2.44,0.19-3.33c0.63-0.58,1.51-0.79,2.32-0.54l10.46,3.21
		c0.81,0.24,1.69,0.04,2.32-0.54l0.22-0.2c1.37-1.25,0.89-3.48-0.86-4L54.6,35.92z M61.81,67.19c0.88,0.98,0.78,2.53-0.24,3.44
		l-2.22,2.01c-2.78,2.48-5.24,2.55-7.38,0.16c-1.02-1.14-1.47-2.33-1.33-3.57c0.14-1.24,0.9-2.49,2.29-3.74l2.23-2
		c1.02-0.91,2.56-0.85,3.45,0.14L61.81,67.19z M49.05,31.27c-0.09,1.3-0.81,2.59-2.17,3.83l-2.27,2.08
		c-0.97,0.89-2.47,0.84-3.34-0.12l-3.5-3.84c-0.87-0.95-0.78-2.44,0.19-3.33l2.27-2.08c1.39-1.27,2.71-1.9,3.98-1.88
		c1.27,0,2.41,0.57,3.44,1.69C48.66,28.76,49.13,29.98,49.05,31.27z"/>
</g>
</svg>
